<svg width="171" height="32" viewBox="0 0 171 32" fill="none" xmlns="http://www.w3.org/2000/svg">
<path d="M13.661 31.9205H6.83048V22.8132H4.55365V13.7059H2.27683V6.8754H0L8.14256e-07 0.0449499L4.55365 0.0449219L4.55365 6.87537H6.83048V13.7059H9.1073V25.09H11.3841V18.2595H13.661V6.8754H15.9378V0.0449219H22.7683V6.87537H25.0451V18.2595H27.3219V25.09H29.6462V13.7059H31.8756V6.8754H34.1524V0.0449219H38.1368V6.87537H36.4292V13.7059H34.1524V22.8132H31.8756V31.9205H25.0451V27.3668H22.7683V18.2595H20.4914V6.8754H18.2146V18.2595H15.9378V27.3668H13.661V31.9205Z" fill="black"/>
<path d="M42.1213 31.9205H37.5676V25.09H39.8444V18.2595H42.1213V11.4291H44.3981V4.59857H46.6749V0.0449318H53.5054V4.59857H55.7822V11.4291H58.059V18.2595H60.3359V25.09H62.6127V31.9205H58.059V25.09H42.1213V31.9205ZM44.3981 20.5364H55.7822V18.2595H53.5054V11.4291H51.2363V6.95897H48.9084L48.9517 11.4291H46.6749V18.2595H44.3981V20.5364Z" fill="black"/>
<path d="M87.6578 31.9205H66.0279V0.0449219H70.5816V27.3668H87.6578V31.9205Z" fill="black"/>
<path d="M95.6267 31.9205H91.073V0.0449318H111.564V2.32175H113.841V4.59857H116.118V14.8443H113.841V17.1211H111.564V19.3979H113.841V21.6748H116.118V31.9205H111.564V23.9516H109.288V21.6748H107.011V19.3979H95.6267V31.9205ZM95.6267 14.8443H109.288V12.5675H111.564V6.8754H109.288V4.59857H95.6267V14.8443Z" fill="black"/>
<path d="M137.748 31.9205H124.087V29.6437H121.81V27.3668H119.533V0.0449318H124.087V25.09H126.364V27.3668H135.471V25.09H137.748V0.0449318H142.302V27.3668H140.025V29.6437H137.748V31.9205Z" fill="black"/>
<path d="M166.208 31.9205H150.27V29.6437H147.994V27.3668H145.717V22.8132H150.27V25.09H152.547V27.3668H163.931V25.09H166.208V20.5364H163.931V18.2595H152.547V15.9827H147.994V13.7059H145.717V4.59857H147.994V2.32175H150.27V0.0449318H166.208V2.32175H168.485V4.59857H170.762V9.15222H166.208V6.8754H163.931V4.59857H152.547V6.8754H150.27V11.4291H152.547V13.7059H163.931V15.9827H168.485V18.2595H170.762V27.3668H168.485V29.6437H166.208V31.9205Z" fill="black"/>
</svg>
