<svg width="376" height="313" viewBox="0 0 376 313" fill="none" xmlns="http://www.w3.org/2000/svg">
<path d="M162.188 12.7031L224.028 30.3536L202.959 88.9857L141.119 70.7266L162.188 12.7031Z" fill="#FFCC00" stroke="#161826" stroke-width="1.32251"/>
<path d="M244.445 51.8574L306.285 69.6641L285.217 128.815L223.377 110.394L244.445 51.8574Z" fill="#97F0E5" stroke="#161826" stroke-width="1.32251"/>
<path d="M264.524 140.291L326.364 157.942L305.295 216.574L243.455 198.314L264.524 140.291Z" fill="#089279" stroke="#161826" stroke-width="1.32251"/>
<path d="M223.07 223.324L284.91 240.975L263.842 299.607L202.002 281.348L223.07 223.324Z" fill="#74FF72" stroke="#161826" stroke-width="1.32251"/>
<path d="M164.781 224.674L226.621 242.324L205.553 300.956L143.713 282.697L164.781 224.674Z" fill="#613DFF" stroke="#161826" stroke-width="1.32251"/>
<path d="M122.68 178.77L184.52 196.42L163.451 255.052L101.611 236.793L122.68 178.77Z" fill="#E9CCFF" stroke="#161826" stroke-width="1.32251"/>
<path d="M70.2111 111.264L132.051 129.07L110.983 188.221L49.1426 169.801L70.2111 111.264Z" fill="#97F0E5" stroke="#161826" stroke-width="1.32251"/>
<path d="M119.438 82.9102L181.278 100.561L160.209 159.193L98.3691 140.934L119.438 82.9102Z" fill="#C584F6" stroke="#161826" stroke-width="1.32251"/>
<path fill-rule="evenodd" clip-rule="evenodd" d="M180.738 121.572L231.623 138.571C239.013 141.017 240.808 128.298 243.552 135.758C243.763 136.614 247.775 156.181 247.986 157.038C249.57 162.785 249.464 169.389 247.458 175.626L230.884 226.257C225.711 242.033 210.192 250.838 196.257 246.191L145.477 229.314C137.348 226.501 131.542 219.653 129.114 211.092C128.903 210.236 124.574 189.323 124.363 188.467C123.413 183.209 128.797 182.23 131.12 176.972L146.216 141.628C152.656 126.586 166.908 116.925 180.738 121.572Z" fill="#089279" stroke="#161826" stroke-width="1.32251"/>
<path fill-rule="evenodd" clip-rule="evenodd" d="M176.62 101.638L227.399 118.637C241.334 123.162 248.408 140.039 243.235 155.693L226.66 206.323C221.593 221.977 206.074 230.904 192.139 226.257L141.359 209.258C127.424 204.611 120.351 187.856 125.524 172.203L142.098 121.572C147.271 105.919 162.79 96.991 176.62 101.638Z" fill="#F7F7F7" stroke="#161826" stroke-width="1.32251"/>
<path d="M197.628 246.803L192.455 226.258" stroke="#161826" stroke-width="1.32251"/>
<path d="M141.358 227.114L136.291 206.812" stroke="#161826" stroke-width="1.32251"/>
<path d="M231.092 225.524L226.658 206.568" stroke="#161826" stroke-width="1.32251"/>
<path d="M247.451 175.628L243.439 154.838" stroke="#161826" stroke-width="1.32251"/>
</svg>
