<svg width="385" height="320" viewBox="0 0 385 320" fill="none" xmlns="http://www.w3.org/2000/svg">
<path fill-rule="evenodd" clip-rule="evenodd" d="M218.854 171.033C220.591 171.033 250.319 166.914 250.319 163.922C250.917 178.718 241.679 298.851 222.302 294.997C214.512 294.997 218.854 272.731 219.546 238.672C221.699 211.318 219.691 180.483 218.854 171.033Z" fill="#F7F7F7" stroke="black" stroke-width="2"/>
<path fill-rule="evenodd" clip-rule="evenodd" d="M162.642 171.033C160.905 171.033 131.177 166.914 131.177 163.922C130.579 178.718 139.817 298.851 159.194 294.997C166.985 294.997 162.642 272.731 161.95 238.672C159.797 211.318 161.805 180.483 162.642 171.033Z" fill="#F7F7F7" stroke="black" stroke-width="2"/>
<rect x="130.842" y="99.5996" width="119.447" height="59.1324" fill="black"/>
<path d="M229.901 179.417C235.665 177.224 241.209 174.564 246.465 171.491L247.787 170.718L246.549 169.819C245.117 168.778 243.7 167.689 242.315 166.569L241.832 166.179L241.269 166.438C208.317 181.572 172.092 181.574 138.733 166.436L138.167 166.179L137.686 166.573C136.32 167.69 134.906 168.777 133.461 169.816L132.21 170.715L133.541 171.491C138.781 174.55 144.31 177.209 150.074 179.402C147.131 185.003 143.766 190.342 140.027 195.393C123.598 190.358 106.893 182.727 89.6622 170.305C86.1747 133.142 93.3694 95.4605 119.671 56.7899C132.541 50.9583 146.295 46.6875 160.666 44.2145C162.402 47.293 164.378 51.2248 165.733 54.383L166.037 55.0911L166.799 54.9778C182.129 52.6991 197.603 52.6987 213.225 54.9782L213.985 55.0891L214.288 54.383C215.646 51.2208 217.579 47.2901 219.295 44.2151C233.65 46.688 247.388 50.9435 260.257 56.7597C283.076 89.9176 294.43 127.259 290.344 170.305C273.112 182.743 256.391 190.374 239.945 195.409C236.196 190.36 232.843 185.009 229.901 179.417ZM136.693 127.453C136.693 139.042 145.326 148.727 156.062 148.727C166.976 148.727 175.443 139.042 175.43 127.461C175.61 115.839 166.964 106.164 156.062 106.164C145.143 106.164 136.693 115.872 136.693 127.453ZM204.575 127.453C204.575 139.042 213.209 148.727 223.944 148.727C234.859 148.727 243.309 139.04 243.313 127.461C243.493 115.839 234.847 106.164 223.944 106.164C213.025 106.164 204.575 115.872 204.575 127.453Z" fill="#613DFF" stroke="black" stroke-width="2"/>
<path d="M251.86 174.791C244.764 180.31 234.712 180.113 237.077 193.714C234.712 194.305 225.842 180.22 225.842 175.974C235.303 172.426 252.451 164.148 258.956 160.6C261.321 163.556 257.182 170.652 251.86 174.791Z" fill="black"/>
<path d="M128.619 174.791C135.715 180.31 145.767 180.113 143.402 193.714C145.176 194.305 155.342 180.345 155.342 176.1C145.881 172.552 128.028 164.148 121.523 160.6C119.158 163.556 123.297 170.652 128.619 174.791Z" fill="black"/>
<circle cx="266.342" cy="57.0996" r="30.5" fill="#74FF72" stroke="black" stroke-width="2"/>
<line x1="266.842" y1="42.5996" x2="266.842" y2="72.5996" stroke="black" stroke-width="2"/>
<line x1="251.842" y1="57.5996" x2="281.842" y2="57.5996" stroke="black" stroke-width="2"/>
</svg>
